<?xml version="1.0" encoding="UTF-8"?> <!-- Generator: Adobe Illustrator 17.0.0, SVG Export Plug-In . SVG Version: 6.00 Build 0) --> <svg xmlns="http://www.w3.org/2000/svg" xmlns:xlink="http://www.w3.org/1999/xlink" id="Layer_1" x="0px" y="0px" width="1920px" height="204.8px" viewBox="-1036.5 -647.9 1920 204.8" xml:space="preserve"> <title>logo-moneysmart-whitebg</title> <desc>Created with Sketch.</desc> <g id="Page-1"> <g id="logo-moneysmart-whitebg"> <g id="Group"> <polyline id="Fill-3" fill="#5CCC5E" points="34.493,0.446 41.337,0.446 46.01,38.778 37.832,38.778 35.161,15.801 26.204,34.383 19.918,34.383 10.904,15.801 8.178,38.778 0,38.778 4.73,0.446 11.461,0.446 23.033,25.148 34.493,0.446 "></polyline> <path id="Fill-4" fill="#5CCC5E" d="M67.367,31.267c6.342,0,11.349-5.174,11.349-11.572S73.709,8.068,67.367,8.068 c-6.343,0-11.294,5.229-11.294,11.627S61.024,31.267,67.367,31.267z M67.367,0c10.905,0,19.472,8.79,19.472,19.695 c0,10.793-8.567,19.64-19.472,19.64c-10.848,0-19.417-8.847-19.417-19.64C47.95,8.79,56.519,0,67.367,0z"></path> <polyline id="Fill-5" fill="#5CCC5E" points="119.83,38.778 112.54,38.778 99.184,15.578 99.184,38.778 91.062,38.778 91.062,0.446 98.518,0.446 111.65,23.367 111.65,0.446 119.83,0.446 119.83,38.778 "></polyline> <polyline id="Fill-6" fill="#5CCC5E" points="127.8,0.446 152.05,0.446 152.05,7.622 135.92,7.622 135.92,16.358 150.05,16.358 150.05,23.423 135.92,23.423 135.92,31.601 152.56,31.601 152.56,38.778 127.8,38.778 127.8,0.446 "></polyline> <path id="Fill-7" fill="#21405F" d="M201.63,27.539c0.11,2.449,2.06,4.619,5.73,4.619c3.28,0,5.56-1.558,5.62-4.062 c0.06-1.725-0.72-3.227-4.62-4.34l-4.61-1.28c-8.46-2.614-9.91-7.566-9.91-11.015C193.84,4.618,199.68,0,207.03,0 c7.4,0,12.96,4.395,12.96,11.739h-8.12c0-2.558-1.73-4.339-4.95-4.339c-2.84,0-4.96,1.558-4.96,3.839 c0,1.001,0.4,2.837,4.12,3.894l4.56,1.446c9.29,2.671,10.63,7.901,10.52,11.573c-0.11,7.621-7.01,11.238-13.8,11.238 c-8.34,0-13.91-4.951-13.91-11.851H201.63"></path> <polyline id="Fill-8" fill="#21405F" points="259.28,0.446 266.12,0.446 270.8,38.778 262.62,38.778 259.95,15.801 250.99,34.383 244.7,34.383 235.69,15.801 232.96,38.778 224.79,38.778 229.52,0.446 236.25,0.446 247.82,25.148 259.28,0.446 "></polyline> <path id="Fill-9" fill="#21405F" d="M295.81,22.644l-4.06-13.352l-3.9,13.352H295.81z M285.18,29.709l-3.39,9.069h-8.68 l14.24-38.332h8.85l14.19,38.332h-8.57l-3.4-9.069H285.18L285.18,29.709z"></path> <path id="Fill-10" fill="#21405F" d="M321.81,7.622v10.794h6.9c3.17,0,4.84-2.894,4.84-5.397c0-2.392-1.55-5.397-4.62-5.397 L321.81,7.622L321.81,7.622z M342.01,38.778h-9.79l-8.57-13.241h-1.84v13.241h-8.17V0.446h15.68c8.68,0,12.74,6.286,12.74,12.573 c0,5.453-3,10.793-9.56,12.183L342.01,38.778L342.01,38.778z"></path> <polyline id="Fill-11" fill="#21405F" points="344.83,0.446 373.76,0.446 373.76,7.789 363.41,7.789 363.41,38.778 355.17,38.778 355.17,7.789 344.83,7.789 344.83,0.446 "></polyline> <path id="Fill-12" fill="#5CCC5E" d="M159.11,0.32h7.24c2.57,2.751,4.63,5.621,6.25,8.644c-1.94,3.961-3.19,8.02-4,12.081 c-1.75-7.081-5.16-13.017-11.47-18.41l-2.71-2.315L159.11,0.32"></path> <path id="Fill-13" fill="#5CCC5E" d="M176.06,8.964c1.62-3.023,3.68-5.892,6.26-8.644h11.92l-2.71,2.315 c-6.31,5.393-9.71,11.329-11.47,18.41c-1.29,5.211-1.69,11.041-1.7,17.733h-8.05c0.01-9.978,0.88-18.546,4.02-26.153 C174.84,11.381,175.42,10.16,176.06,8.964"></path> </g> </g> </g> <g id="Page-1_1_"> <g id="logo-moneysmart-whitebg_1_"> <g id="Group_1_"> <polyline id="Fill-3_1_" fill="#5CCC5E" points="-855.775,-643.935 -820.776,-643.935 -796.88,-447.914 -838.7,-447.914 -852.359,-565.413 -898.163,-470.389 -930.309,-470.389 -976.404,-565.413 -990.344,-447.914 -1032.165,-447.914 -1007.977,-643.935 -973.556,-643.935 -914.379,-517.615 -855.775,-643.935 "></polyline> <path id="Fill-4_1_" fill="#5CCC5E" d="M-687.664-486.323c32.432,0,58.036-26.459,58.036-59.177 c0-32.718-25.605-59.458-58.036-59.458c-32.437,0-57.755,26.74-57.755,59.458S-720.101-486.323-687.664-486.323z M-687.664-646.216c55.766,0,99.576,44.95,99.576,100.716c0,55.193-43.81,100.435-99.576,100.435 c-55.474,0-99.294-45.242-99.294-100.435C-786.959-601.266-743.139-646.216-687.664-646.216z"></path> <polyline id="Fill-5_1_" fill="#5CCC5E" points="-419.38,-447.914 -456.659,-447.914 -524.959,-566.553 -524.959,-447.914 -566.493,-447.914 -566.493,-643.935 -528.365,-643.935 -461.21,-526.722 -461.21,-643.935 -419.38,-643.935 -419.38,-447.914 "></polyline> <polyline id="Fill-6_1_" fill="#5CCC5E" points="-378.623,-643.935 -254.613,-643.935 -254.613,-607.239 -337.099,-607.239 -337.099,-562.565 -264.841,-562.565 -264.841,-526.436 -337.099,-526.436 -337.099,-484.615 -252.005,-484.615 -252.005,-447.914 -378.623,-447.914 -378.623,-643.935 "></polyline> <path id="Fill-7_1_" fill="#21405F" d="M-1.072-505.387c0.563,12.524,10.534,23.621,29.302,23.621 c16.773,0,28.433-7.967,28.739-20.772c0.307-8.821-3.682-16.502-23.626-22.194L9.77-531.279 c-43.263-13.367-50.678-38.691-50.678-56.328c0-34.994,29.865-58.609,67.451-58.609c37.842,0,66.275,22.475,66.275,60.031H51.294 c0-13.081-8.847-22.189-25.313-22.189c-14.523,0-25.364,7.967-25.364,19.632c0,5.119,2.045,14.508,21.069,19.913l23.319,7.395 c47.507,13.659,54.36,40.404,53.797,59.182c-0.563,38.972-35.848,57.469-70.57,57.469c-42.649,0-71.133-25.318-71.133-60.604 H-1.072"></path> <polyline id="Fill-8_1_" fill="#21405F" points="293.738,-643.935 328.717,-643.935 352.649,-447.914 310.818,-447.914 297.165,-565.413 251.345,-470.389 219.179,-470.389 173.104,-565.413 159.143,-447.914 117.364,-447.914 141.552,-643.935 175.968,-643.935 235.134,-517.615 293.738,-643.935 "></polyline> <path id="Fill-9_1_" fill="#21405F" d="M480.545-530.419l-20.762-68.279l-19.944,68.279H480.545z M426.185-494.291 l-17.336,46.377h-44.388l72.82-196.022h45.257l72.565,196.022h-43.825l-17.387-46.377H426.185L426.185-494.291z"></path> <path id="Fill-10_1_" fill="#21405F" d="M613.504-607.239v55.198h35.285c16.211,0,24.751-14.799,24.751-27.599 c0-12.232-7.926-27.599-23.626-27.599L613.504-607.239L613.504-607.239z M716.802-447.914h-50.064l-43.825-67.712h-9.409v67.712 h-41.78v-196.022h80.184c44.388,0,65.15,32.145,65.15,64.296c0,27.885-15.341,55.193-48.888,62.301L716.802-447.914 L716.802-447.914z"></path> <polyline id="Fill-11_1_" fill="#21405F" points="731.223,-643.935 879.165,-643.935 879.165,-606.385 826.237,-606.385 826.237,-447.914 784.1,-447.914 784.1,-606.385 731.223,-606.385 731.223,-643.935 "></polyline> <path id="Fill-12_1_" fill="#5CCC5E" d="M-218.51-644.58h37.024c13.142,14.068,23.677,28.745,31.961,44.204 c-9.921,20.256-16.313,41.013-20.455,61.78c-8.949-36.211-26.387-66.566-58.655-94.145l-13.858-11.838H-218.51"></path> <path id="Fill-13_1_" fill="#5CCC5E" d="M-131.831-600.376c8.284-15.459,18.819-30.13,32.012-44.204h60.956l-13.858,11.838 c-32.268,27.579-49.655,57.934-58.655,94.145c-6.597,26.648-8.642,56.461-8.693,90.683h-41.166 c0.051-51.025,4.5-94.84,20.557-133.741C-138.07-588.016-135.104-594.26-131.831-600.376"></path> </g> </g> </g> </svg> 